<svg xmlns="http://www.w3.org/2000/svg" width="90" height="90" viewBox="0 0 90 90"><rect width="100%" height="100%" fill="#DDDDDD"/><path fill="#999999" d="M20.415 42.685q0 .97.5 1.48t1.42.51q.48 0 .86-.15.37-.16.63-.42t.39-.62.13-.78q0-.47-.14-.84-.15-.38-.41-.63-.27-.26-.63-.39-.36-.14-.8-.14t-.8.15-.62.41-.39.63q-.14.36-.14.79m-.97 8.1 3.6-4.49.25-.33q.12-.16.23-.32-.4.26-.88.39t-1 .13q-.6 0-1.18-.2-.58-.21-1.02-.63-.45-.42-.73-1.04-.27-.62-.27-1.45 0-.78.28-1.46.29-.68.81-1.19t1.25-.81 1.61-.3q.89 0 1.59.28.71.28 1.21.79.5.5.77 1.21.27.7.27 1.54 0 .54-.09 1.02-.1.48-.26.92-.17.44-.41.87-.24.42-.54.84l-2.65 3.77q-.13.2-.4.33-.28.13-.62.13zm16.49-5.78q0 1.51-.32 2.62-.33 1.12-.9 1.85t-1.35 1.08q-.78.36-1.68.36-.91 0-1.68-.36-.77-.35-1.34-1.08t-.89-1.85q-.32-1.11-.32-2.62 0-1.52.32-2.64.32-1.11.89-1.84.57-.72 1.34-1.08t1.68-.36q.9 0 1.68.36t1.35 1.08q.57.73.9 1.84.32 1.12.32 2.64m-2.04 0q0-1.26-.18-2.08-.19-.83-.49-1.32-.31-.48-.71-.68t-.83-.2-.82.2q-.4.2-.7.68-.31.49-.49 1.32-.18.82-.18 2.08 0 1.25.18 2.08.18.82.49 1.31.3.49.7.68.39.2.82.2t.83-.2q.4-.19.71-.68.3-.49.49-1.31.18-.83.18-2.08m14.75 3.13-1.05 1.03-2.71-2.71-2.74 2.73-1.05-1.03 2.74-2.75-2.61-2.6 1.04-1.04 2.61 2.6 2.59-2.59 1.06 1.04-2.6 2.6zm7.39-5.45q0 .97.5 1.48t1.42.51q.48 0 .85-.15.38-.16.64-.42.25-.26.38-.62.14-.36.14-.78 0-.47-.15-.84-.14-.38-.41-.63-.26-.26-.62-.39-.37-.14-.8-.14-.45 0-.81.15t-.61.41q-.26.26-.4.63-.13.36-.13.79m-.97 8.1 3.59-4.49q.14-.17.26-.33t.23-.32q-.4.26-.88.39t-1.01.13q-.6 0-1.17-.2-.58-.21-1.03-.63t-.72-1.04q-.28-.62-.28-1.45 0-.78.29-1.46t.81-1.19 1.25-.81q.72-.3 1.6-.3.89 0 1.6.28t1.21.79q.5.5.77 1.21.26.7.26 1.54 0 .54-.09 1.02t-.26.92-.41.87q-.24.42-.53.84l-2.65 3.77q-.14.2-.41.33t-.61.13zm16.49-5.78q0 1.51-.33 2.62-.32 1.12-.89 1.85t-1.35 1.08q-.78.36-1.69.36-.9 0-1.67-.36-.78-.35-1.34-1.08-.57-.73-.89-1.85-.32-1.11-.32-2.62 0-1.52.32-2.64.32-1.11.89-1.84.56-.72 1.34-1.08.77-.36 1.67-.36.91 0 1.69.36t1.35 1.08q.57.73.89 1.84.33 1.12.33 2.64m-2.04 0q0-1.26-.19-2.08-.18-.83-.49-1.32-.31-.48-.71-.68t-.83-.2q-.42 0-.82.2-.39.2-.7.68-.3.49-.48 1.32-.18.82-.18 2.08 0 1.25.18 2.08.18.82.48 1.31.31.49.7.68.4.2.82.2.43 0 .83-.2.4-.19.71-.68t.49-1.31q.19-.83.19-2.08"/></svg>